<svg xmlns="http://www.w3.org/2000/svg" width="1536" height="1024" viewBox="0 0 1536 1024" role="img" aria-labelledby="empathize-title empathize-desc">
  <title id="empathize-title">E — Empathize</title>
  <desc id="empathize-desc">A large letter E beside the word Empathize and two overlapping conversation bubbles joined by a heart. E is highlighted in the HEART progress rail.</desc>
  <rect width="1536" height="1024" fill="#FFFAF0"/>
  <rect x="36" y="36" width="1464" height="952" rx="42" fill="none" stroke="#294A40" stroke-width="8"/>
  <rect x="84" y="84" width="520" height="780" rx="48" fill="#F1D58E"/>
  <text x="344" y="632" fill="#1D2B29" font-family="Trebuchet MS, Arial Rounded MT Bold, Arial, sans-serif" font-size="520" font-weight="900" text-anchor="middle">E</text>

  <text x="668" y="218" fill="#1D2B29" font-family="Trebuchet MS, Arial Rounded MT Bold, Arial, sans-serif" font-size="102" font-weight="900" letter-spacing="2">EMPATHIZE</text>
  <text x="674" y="270" fill="#946514" font-family="Trebuchet MS, Arial, sans-serif" font-size="30" font-weight="700" letter-spacing="5">RECOGNIZE HOW IT FEELS</text>

  <circle cx="1072" cy="528" r="226" fill="#F1D58E"/>
  <g fill="#FFFAF0" stroke="#946514" stroke-width="22" stroke-linecap="round" stroke-linejoin="round">
    <path d="M865 401 Q865 355 911 355 H1106 Q1152 355 1152 401 V514 Q1152 560 1106 560 H1008 L944 615 V560 H911 Q865 560 865 514 Z"/>
    <path d="M1003 514 Q1003 468 1049 468 H1244 Q1290 468 1290 514 V627 Q1290 673 1244 673 H1211 V728 L1147 673 H1049 Q1003 673 1003 627 Z"/>
  </g>
  <path d="M1074 552 C1054 530 1018 546 1018 576 C1018 609 1074 642 1074 642 C1074 642 1130 609 1130 576 C1130 546 1094 530 1074 552 Z" fill="#9C4935" stroke="#FFFAF0" stroke-width="9" stroke-linejoin="round"/>

  <g font-family="Trebuchet MS, Arial Rounded MT Bold, Arial, sans-serif" font-size="34" font-weight="900" text-anchor="middle">
    <path d="M736 916 H1304" fill="none" stroke="#D5CBB9" stroke-width="8" stroke-linecap="round"/>
    <circle cx="736" cy="916" r="42" fill="#FFFAF0" stroke="#294A40" stroke-width="5"/>
    <text x="736" y="928" fill="#1D2B29">H</text>
    <circle cx="878" cy="916" r="42" fill="#946514"/>
    <text x="878" y="928" fill="#FFFAF0">E</text>
    <circle cx="1020" cy="916" r="42" fill="#FFFAF0" stroke="#294A40" stroke-width="5"/>
    <text x="1020" y="928" fill="#1D2B29">A</text>
    <circle cx="1162" cy="916" r="42" fill="#FFFAF0" stroke="#294A40" stroke-width="5"/>
    <text x="1162" y="928" fill="#1D2B29">R</text>
    <circle cx="1304" cy="916" r="42" fill="#FFFAF0" stroke="#294A40" stroke-width="5"/>
    <text x="1304" y="928" fill="#1D2B29">T</text>
  </g>
</svg>
